<svg width="300" height="300" viewBox="0 0 300 300" fill="none" xmlns="http://www.w3.org/2000/svg">
    <rect width="300" height="300"/>
    <rect x="10" y="40" width="10" height="10" fill="#000104"/>
    <rect x="280" y="40" width="10" height="10" fill="#000104"/>
    <rect x="10" y="30" width="280" height="10" fill="#000104"/>
    <rect x="40" y="40" width="60" height="10" fill="#626898"/>
    <rect x="20" y="40" width="20" height="10" fill="#818BB3"/>
    <rect x="100" y="40" width="160" height="10" fill="#818BB3"/>
    <rect x="260" y="40" width="20" height="10" fill="#626898"/>
    <rect x="20" y="50" width="260" height="10" fill="#000104"/>
    <rect x="20" y="230" width="260" height="10" fill="#000104"/>
    <rect x="20" y="60" width="10" height="170" fill="#000104"/>
    <rect x="270" y="60" width="10" height="170" fill="#000104"/>
    <rect x="140" y="240" width="10" height="40" fill="#000104"/>
    <rect x="150" y="240" width="10" height="40" fill="#000104"/>
    <rect x="130" y="280" width="40" height="10" fill="#E8E8F1"/>
    <rect x="120" y="280" width="10" height="20" fill="#000104"/>
    <rect x="170" y="280" width="10" height="20" fill="#000104"/>
    <rect x="130" y="290" width="40" height="10" fill="#000104"/>
    <rect x="30" y="60" width="240" height="170" fill="#E8E8F1"/>
    <rect x="230" y="190" width="10" height="10" fill="#626898"/>
    <rect x="60" y="90" width="10" height="10" fill="#626898"/>
    <rect x="70" y="190" width="160" height="10" fill="#626898"/>
    <rect x="70" y="90" width="10" height="10" fill="#626898"/>
    <rect x="220" y="180" width="10" height="10" fill="#626898"/>
    <rect x="220" y="200" width="10" height="10" fill="#626898"/>
    <rect x="50" y="90" width="10" height="10" fill="#626898"/>
    <rect x="60" y="80" width="10" height="10" fill="#626898"/>
    <rect x="60" y="100" width="10" height="100" fill="#626898"/>
    <rect x="60" y="70" width="10" height="10" fill="#000104"/>
    <rect x="50" y="80" width="10" height="10" fill="#000104"/>
    <rect x="70" y="80" width="10" height="10" fill="#000104"/>
    <rect x="80" y="90" width="10" height="10" fill="#000104"/>
    <rect x="40" y="90" width="10" height="10" fill="#000104"/>
    <rect x="220" y="170" width="10" height="10" fill="#000104"/>
    <rect x="230" y="180" width="10" height="10" fill="#000104"/>
    <rect x="240" y="190" width="10" height="10" fill="#000104"/>
    <rect x="230" y="200" width="10" height="10" fill="#000104"/>
    <rect x="220" y="210" width="10" height="10" fill="#000104"/>
    <rect x="80" y="180" width="10" height="10" fill="#56B354"/>
    <rect x="90" y="170" width="10" height="10" fill="#56B354"/>
    <rect x="100" y="160" width="10" height="10" fill="#56B354"/>
    <rect x="110" y="150" width="10" height="10" fill="#56B354"/>
    <rect x="120" y="140" width="10" height="10" fill="#56B354"/>
    <rect x="130" y="150" width="10" height="10" fill="#56B354"/>
    <rect x="140" y="140" width="10" height="10" fill="#56B354"/>
    <rect x="150" y="130" width="10" height="10" fill="#56B354"/>
    <rect x="160" y="120" width="10" height="10" fill="#56B354"/>
    <rect x="170" y="130" width="10" height="10" fill="#56B354"/>
    <rect x="180" y="140" width="10" height="10" fill="#56B354"/>
    <rect x="190" y="130" width="10" height="10" fill="#56B354"/>
    <rect x="200" y="120" width="10" height="10" fill="#56B354"/>
    <rect x="210" y="110" width="10" height="10" fill="#56B354"/>
    <rect x="210" y="120" width="10" height="70" fill="#C2C5D8"/>
    <rect x="170" y="140" width="10" height="50" fill="#C2C5D8"/>
    <rect x="130" y="160" width="10" height="30" fill="#C2C5D8"/>
    <rect x="130" y="70" width="10" height="80" fill="#C2C5D8"/>
    <rect x="90" y="70" width="10" height="90" fill="#C2C5D8"/>
    <rect x="170" y="70" width="10" height="60" fill="#C2C5D8"/>
    <rect x="210" y="70" width="10" height="40" fill="#C2C5D8"/>
    <rect x="110" y="160" width="140" height="10" fill="#C2C5D8"/>
    <rect x="80" y="80" width="170" height="10" fill="#C2C5D8"/>
    <rect x="220" y="120" width="30" height="10" fill="#C2C5D8"/>
    <rect x="180" y="120" width="20" height="10" fill="#C2C5D8"/>
    <rect x="70" y="120" width="90" height="10" fill="#C2C5D8"/>
    <rect x="70" y="160" width="30" height="10" fill="#C2C5D8"/>
    <rect x="90" y="180" width="10" height="10" fill="#C2C5D8"/>
    <rect x="130" y="250" width="10" height="10" fill="#000104"/>
    <rect x="160" y="250" width="20" height="10" fill="#000104"/>
    <rect x="120" y="250" width="10" height="10" fill="#000104"/>
    <rect x="110" y="260" width="10" height="10" fill="#000104"/>
    <rect x="180" y="260" width="10" height="10" fill="#000104"/>
</svg>
